<svg width="39" height="13" viewBox="0 0 39 13" fill="none" xmlns="http://www.w3.org/2000/svg">
<path d="M0.234375 0.245624V7.08562C0.234375 10.3856 2.28938 12.5456 5.48438 12.5456C8.66438 12.5456 10.7194 10.3856 10.7194 7.08562V0.245624H9.14438V7.08562C9.14438 9.50062 7.76438 11.1056 5.48438 11.1056C3.20438 11.1056 1.80938 9.50062 1.80938 7.08562V0.245624H0.234375ZM16.447 6.18562L12.112 12.2606H13.957L17.452 7.34062L20.932 12.2606H22.807L18.457 6.14062L22.657 0.245624H20.827L17.482 4.98562L14.167 0.245624H12.262L16.447 6.18562ZM24.2027 0.245624V7.08562C24.2027 10.3856 26.2577 12.5456 29.4527 12.5456C32.6327 12.5456 34.6877 10.3856 34.6877 7.08562V0.245624H33.1127V7.08562C33.1127 9.50062 31.7327 11.1056 29.4527 11.1056C27.1727 11.1056 25.7777 9.50062 25.7777 7.08562V0.245624H24.2027ZM38.7472 0.245624H37.1722V12.2606H38.7472V0.245624Z" fill="#1D1F22"/>
</svg>
