<svg width="126" height="17" viewBox="0 0 126 17" fill="none" xmlns="http://www.w3.org/2000/svg">
<path d="M15.59 1.24562L12.74 10.9056L9.89 1.24562H8.21L5.375 10.8756L2.525 1.24562H0.89L4.535 13.2606H6.125L9.035 3.67562L11.93 13.2606H13.52L17.18 1.24562H15.59ZM21.6264 13.4706C23.5914 13.4706 25.1364 12.4056 25.6014 10.9206H24.0264C23.7114 11.6256 22.7964 12.1656 21.6264 12.1656C20.0964 12.1656 19.0314 11.0706 18.8664 9.60062H25.8864C25.9164 9.39062 25.9164 9.16562 25.9164 8.97062C25.9164 6.39062 24.1314 4.47062 21.6264 4.47062C19.1214 4.47062 17.3214 6.39062 17.3214 8.97062C17.3214 11.5506 19.1214 13.4706 21.6264 13.4706ZM24.4014 8.34062H18.8664C19.0314 6.85562 20.0814 5.77562 21.6264 5.77562C23.1714 5.77562 24.2214 6.84062 24.4014 8.34062ZM32.5439 13.4706C34.9739 13.4706 36.7889 11.5356 36.7889 8.97062C36.7889 6.40562 34.9739 4.47062 32.5439 4.47062C30.9839 4.47062 29.9339 5.22062 29.4989 5.95562V0.870625H27.9539V13.2606H29.4989V11.9856C29.9339 12.7206 30.9839 13.4706 32.5439 13.4706ZM32.4089 12.1056C30.6689 12.1056 29.4689 10.7556 29.4689 8.97062C29.4689 7.18562 30.6689 5.83562 32.4089 5.83562C34.1339 5.83562 35.2739 7.18562 35.2739 8.97062C35.2739 10.7556 34.1339 12.1056 32.4089 12.1056ZM47.7085 13.4706C50.1385 13.4706 51.9535 11.5356 51.9535 8.97062C51.9535 6.40562 50.1385 4.47062 47.7085 4.47062C46.1485 4.47062 45.0985 5.22062 44.6635 5.95562V4.68062H43.1185V16.9056H44.6635V11.9856C45.0985 12.7206 46.1485 13.4706 47.7085 13.4706ZM47.5735 12.1056C45.8335 12.1056 44.6335 10.7556 44.6335 8.97062C44.6335 7.18562 45.8335 5.83562 47.5735 5.83562C49.2985 5.83562 50.4385 7.18562 50.4385 8.97062C50.4385 10.7556 49.2985 12.1056 47.5735 12.1056ZM54.0041 4.68062V13.2606H55.5491V8.82062C55.5491 7.26062 56.7791 5.85062 58.5341 5.85062C59.0591 5.85062 59.4791 5.94062 59.8091 6.09062V4.62062C59.5091 4.51562 59.1641 4.47062 58.6391 4.47062C56.9591 4.47062 55.9241 5.35562 55.5491 6.00062V4.68062H54.0041ZM64.9088 4.47062C62.3588 4.47062 60.5138 6.39062 60.5138 8.97062C60.5138 11.5506 62.3588 13.4706 64.9088 13.4706C67.4438 13.4706 69.2888 11.5506 69.2888 8.97062C69.2888 6.39062 67.4438 4.47062 64.9088 4.47062ZM64.9088 5.83562C66.6038 5.83562 67.7738 7.18562 67.7738 8.97062C67.7738 10.7556 66.6038 12.1056 64.9088 12.1056C63.1988 12.1056 62.0288 10.7556 62.0288 8.97062C62.0288 7.18562 63.1988 5.83562 64.9088 5.83562ZM71.3367 4.68062V13.2606H72.8817V8.62562C72.8817 7.08062 73.8267 5.82062 75.1017 5.82062C76.3017 5.82062 77.0667 6.75062 77.0667 8.35562V13.2606H78.6117V8.64062C78.6117 7.08062 79.5417 5.82062 80.8317 5.82062C82.0467 5.82062 82.7967 6.75062 82.7967 8.29562V13.2606H84.3417V8.04062C84.3417 5.86562 83.0217 4.47062 81.1917 4.47062C79.7367 4.47062 78.6567 5.19062 78.1467 6.27062C77.7267 5.17562 76.7517 4.47062 75.4767 4.47062C74.0367 4.47062 73.2717 5.26562 72.8817 5.89562V4.68062H71.3367ZM90.5618 4.47062C88.0118 4.47062 86.1668 6.39062 86.1668 8.97062C86.1668 11.5506 88.0118 13.4706 90.5618 13.4706C93.0968 13.4706 94.9418 11.5506 94.9418 8.97062C94.9418 6.39062 93.0968 4.47062 90.5618 4.47062ZM90.5618 5.83562C92.2568 5.83562 93.4268 7.18562 93.4268 8.97062C93.4268 10.7556 92.2568 12.1056 90.5618 12.1056C88.8518 12.1056 87.6818 10.7556 87.6818 8.97062C87.6818 7.18562 88.8518 5.83562 90.5618 5.83562ZM101.211 4.68062H99.3063V2.07062H97.7613V4.68062H95.8563V6.04562H97.7613V13.2606H99.3063V6.04562H101.211V4.68062ZM103.645 0.720625C103.06 0.720625 102.625 1.15562 102.625 1.74062C102.625 2.32562 103.06 2.76062 103.645 2.76062C104.245 2.76062 104.68 2.32562 104.68 1.74062C104.68 1.15562 104.245 0.720625 103.645 0.720625ZM104.425 13.2756V4.68062H102.88V13.2756H104.425ZM110.87 4.47062C108.32 4.47062 106.475 6.39062 106.475 8.97062C106.475 11.5506 108.32 13.4706 110.87 13.4706C113.405 13.4706 115.25 11.5506 115.25 8.97062C115.25 6.39062 113.405 4.47062 110.87 4.47062ZM110.87 5.83562C112.565 5.83562 113.735 7.18562 113.735 8.97062C113.735 10.7556 112.565 12.1056 110.87 12.1056C109.16 12.1056 107.99 10.7556 107.99 8.97062C107.99 7.18562 109.16 5.83562 110.87 5.83562ZM117.298 4.68062V13.2606H118.843V8.82062C118.843 7.23062 119.923 5.82062 121.423 5.82062C122.818 5.82062 123.658 6.76562 123.658 8.50562V13.2606H125.203V8.23562C125.203 5.92562 123.778 4.47062 121.753 4.47062C120.178 4.47062 119.203 5.35562 118.843 5.98562V4.68062H117.298Z" fill="#1D1F22"/>
</svg>
