<svg width="88" height="17" viewBox="0 0 88 17" fill="none" xmlns="http://www.w3.org/2000/svg">
<path d="M0.29 1.24562V13.2606H5.645C8.345 13.2606 9.92 11.9406 9.92 9.87062C9.92 8.38562 8.855 7.32062 7.49 7.05062C8.57 6.79562 9.35 5.70062 9.35 4.57562C9.35 2.52062 7.85 1.24562 5.195 1.24562H0.29ZM5.15 6.54062H1.865V2.61062H5.15C6.815 2.61062 7.76 3.30062 7.76 4.57562C7.76 5.85062 6.815 6.54062 5.15 6.54062ZM5.6 11.8956H1.865V7.84562H5.6C7.28 7.84562 8.33 8.55062 8.33 9.87062C8.33 11.1906 7.28 11.8956 5.6 11.8956ZM13.4952 13.2606V0.870625H11.9502V13.2606H13.4952ZM21.084 14.2656L26.574 0.240625H25.014L19.524 14.2656H21.084ZM38.4315 13.5306C41.9415 13.5306 44.6415 11.0406 44.6415 7.50062V6.96062H38.1765V8.32562H42.9615C42.7815 10.5006 40.9515 12.1206 38.4915 12.1206C35.6865 12.1206 33.7065 10.0806 33.7065 7.24562C33.7065 4.42562 35.6865 2.40062 38.4615 2.40062C40.5165 2.40062 42.2115 3.52562 42.7065 5.04062H44.4165C43.7865 2.74562 41.4915 0.960624 38.4315 0.960624C34.7565 0.960624 32.1315 3.61562 32.1315 7.24562C32.1315 10.8756 34.7565 13.5306 38.4315 13.5306ZM46.6464 4.68062V13.2606H48.1914V8.82062C48.1914 7.26062 49.4214 5.85062 51.1764 5.85062C51.7014 5.85062 52.1214 5.94062 52.4514 6.09062V4.62062C52.1514 4.51562 51.8064 4.47062 51.2814 4.47062C49.6014 4.47062 48.5664 5.35562 48.1914 6.00062V4.68062H46.6464ZM57.4012 13.4706C58.9612 13.4706 60.0112 12.7206 60.4462 11.9856V13.2606H61.9912V4.68062H60.4462V5.95562C60.0112 5.22062 58.9612 4.47062 57.4012 4.47062C54.9712 4.47062 53.1562 6.40562 53.1562 8.97062C53.1562 11.5356 54.9712 13.4706 57.4012 13.4706ZM57.5362 12.1056C55.8112 12.1056 54.6712 10.7556 54.6712 8.97062C54.6712 7.18562 55.8112 5.83562 57.5362 5.83562C59.2762 5.83562 60.4762 7.18562 60.4762 8.97062C60.4762 10.7556 59.2762 12.1056 57.5362 12.1056ZM69.0818 13.4706C71.5118 13.4706 73.3268 11.5356 73.3268 8.97062C73.3268 6.40562 71.5118 4.47062 69.0818 4.47062C67.5218 4.47062 66.4718 5.22062 66.0368 5.95562V4.68062H64.4918V16.9056H66.0368V11.9856C66.4718 12.7206 67.5218 13.4706 69.0818 13.4706ZM68.9468 12.1056C67.2068 12.1056 66.0068 10.7556 66.0068 8.97062C66.0068 7.18562 67.2068 5.83562 68.9468 5.83562C70.6718 5.83562 71.8118 7.18562 71.8118 8.97062C71.8118 10.7556 70.6718 12.1056 68.9468 12.1056ZM76.1423 0.720625C75.5573 0.720625 75.1223 1.15562 75.1223 1.74062C75.1223 2.32562 75.5573 2.76062 76.1423 2.76062C76.7423 2.76062 77.1773 2.32562 77.1773 1.74062C77.1773 1.15562 76.7423 0.720625 76.1423 0.720625ZM76.9223 13.2756V4.68062H75.3773V13.2756H76.9223ZM87.417 10.3506H85.842C85.497 11.3856 84.567 12.1056 83.352 12.1056C81.642 12.1056 80.487 10.7556 80.487 8.97062C80.487 7.18562 81.642 5.83562 83.352 5.83562C84.567 5.83562 85.467 6.54062 85.812 7.56062H87.387C86.967 5.77562 85.377 4.47062 83.352 4.47062C80.817 4.47062 78.972 6.39062 78.972 8.97062C78.972 11.5506 80.832 13.4706 83.382 13.4706C85.377 13.4706 86.952 12.2106 87.417 10.3506Z" fill="#1D1F22"/>
</svg>
