<svg width="79" height="14" viewBox="0 0 79 14" fill="none" xmlns="http://www.w3.org/2000/svg">
<path d="M10.14 13.2606H11.865L6.93 1.24562H5.265L0.315 13.2606H1.965L3.165 10.2906H8.94L10.14 13.2606ZM3.72 8.89562L6.06 3.09062L8.385 8.89562H3.72ZM18.0529 13.4706C20.4829 13.4706 22.2979 11.5356 22.2979 8.97062C22.2979 6.40562 20.4829 4.47062 18.0529 4.47062C16.4929 4.47062 15.4429 5.22062 15.0079 5.95562V0.870625H13.4629V13.2606H15.0079V11.9856C15.4429 12.7206 16.4929 13.4706 18.0529 13.4706ZM17.9179 12.1056C16.1779 12.1056 14.9779 10.7556 14.9779 8.97062C14.9779 7.18562 16.1779 5.83562 17.9179 5.83562C19.6429 5.83562 20.7829 7.18562 20.7829 8.97062C20.7829 10.7556 19.6429 12.1056 17.9179 12.1056ZM28.2934 4.47062C25.7434 4.47062 23.8984 6.39062 23.8984 8.97062C23.8984 11.5506 25.7434 13.4706 28.2934 13.4706C30.8284 13.4706 32.6734 11.5506 32.6734 8.97062C32.6734 6.39062 30.8284 4.47062 28.2934 4.47062ZM28.2934 5.83562C29.9884 5.83562 31.1584 7.18562 31.1584 8.97062C31.1584 10.7556 29.9884 12.1056 28.2934 12.1056C26.5834 12.1056 25.4134 10.7556 25.4134 8.97062C25.4134 7.18562 26.5834 5.83562 28.2934 5.83562ZM42.4312 13.2606V4.68062H40.8862V9.12062C40.8862 10.7106 39.8062 12.1206 38.3062 12.1206C36.9112 12.1206 36.0712 11.1756 36.0712 9.43562V4.68062H34.5262V9.70562C34.5262 12.0156 35.9512 13.4706 37.9762 13.4706C39.5512 13.4706 40.5262 12.5856 40.8862 11.9556V13.2606H42.4312ZM49.433 4.68062H47.528V2.07062H45.983V4.68062H44.078V6.04562H45.983V13.2606H47.528V6.04562H49.433V4.68062ZM55.3808 4.68062V13.2606H56.9258V8.62562C56.9258 7.08062 57.8708 5.82062 59.1458 5.82062C60.3458 5.82062 61.1108 6.75062 61.1108 8.35562V13.2606H62.6558V8.64062C62.6558 7.08062 63.5858 5.82062 64.8758 5.82062C66.0908 5.82062 66.8408 6.75062 66.8408 8.29562V13.2606H68.3858V8.04062C68.3858 5.86562 67.0658 4.47062 65.2358 4.47062C63.7808 4.47062 62.7008 5.19062 62.1908 6.27062C61.7708 5.17562 60.7958 4.47062 59.5208 4.47062C58.0808 4.47062 57.3158 5.26562 56.9258 5.89562V4.68062H55.3808ZM74.5159 13.4706C76.4809 13.4706 78.0259 12.4056 78.4909 10.9206H76.9159C76.6009 11.6256 75.6859 12.1656 74.5159 12.1656C72.9859 12.1656 71.9209 11.0706 71.7559 9.60062H78.7759C78.8059 9.39062 78.8059 9.16562 78.8059 8.97062C78.8059 6.39062 77.0209 4.47062 74.5159 4.47062C72.0109 4.47062 70.2109 6.39062 70.2109 8.97062C70.2109 11.5506 72.0109 13.4706 74.5159 13.4706ZM77.2909 8.34062H71.7559C71.9209 6.85562 72.9709 5.77562 74.5159 5.77562C76.0609 5.77562 77.1109 6.84062 77.2909 8.34062Z" fill="#1D1F22"/>
</svg>
