<svg width="64" height="14" viewBox="0 0 64 14" fill="none" xmlns="http://www.w3.org/2000/svg">
<path d="M0.29 1.24562V13.2606H1.865V9.58562H4.55C7.67 9.58562 9.5 7.92062 9.5 5.41562C9.5 2.91062 7.67 1.24562 4.55 1.24562H0.29ZM4.43 8.16063H1.865V2.67062H4.43C6.605 2.67062 7.925 3.63062 7.925 5.41562C7.925 7.20062 6.605 8.16063 4.43 8.16063ZM11.247 4.68062V13.2606H12.792V8.82062C12.792 7.26062 14.022 5.85062 15.777 5.85062C16.302 5.85062 16.722 5.94062 17.052 6.09062V4.62062C16.752 4.51562 16.407 4.47062 15.882 4.47062C14.202 4.47062 13.167 5.35562 12.792 6.00062V4.68062H11.247ZM22.1518 4.47062C19.6018 4.47062 17.7568 6.39062 17.7568 8.97062C17.7568 11.5506 19.6018 13.4706 22.1518 13.4706C24.6868 13.4706 26.5318 11.5506 26.5318 8.97062C26.5318 6.39062 24.6868 4.47062 22.1518 4.47062ZM22.1518 5.83562C23.8468 5.83562 25.0168 7.18562 25.0168 8.97062C25.0168 10.7556 23.8468 12.1056 22.1518 12.1056C20.4418 12.1056 19.2718 10.7556 19.2718 8.97062C19.2718 7.18562 20.4418 5.83562 22.1518 5.83562ZM32.3746 13.4706C33.9346 13.4706 34.9846 12.7206 35.4196 11.9856V13.2606H36.9646V0.870625H35.4196V5.95562C34.9846 5.22062 33.9346 4.47062 32.3746 4.47062C29.9446 4.47062 28.1296 6.40562 28.1296 8.97062C28.1296 11.5356 29.9446 13.4706 32.3746 13.4706ZM32.5096 12.1056C30.7846 12.1056 29.6446 10.7556 29.6446 8.97062C29.6446 7.18562 30.7846 5.83562 32.5096 5.83562C34.2496 5.83562 35.4496 7.18562 35.4496 8.97062C35.4496 10.7556 34.2496 12.1056 32.5096 12.1056ZM47.1752 13.2606V4.68062H45.6302V9.12062C45.6302 10.7106 44.5502 12.1206 43.0502 12.1206C41.6552 12.1206 40.8152 11.1756 40.8152 9.43562V4.68062H39.2702V9.70562C39.2702 12.0156 40.6952 13.4706 42.7202 13.4706C44.2952 13.4706 45.2702 12.5856 45.6302 11.9556V13.2606H47.1752ZM57.6719 10.3506H56.0969C55.7519 11.3856 54.8219 12.1056 53.6069 12.1056C51.8969 12.1056 50.7419 10.7556 50.7419 8.97062C50.7419 7.18562 51.8969 5.83562 53.6069 5.83562C54.8219 5.83562 55.7219 6.54062 56.0669 7.56062H57.6419C57.2219 5.77562 55.6319 4.47062 53.6069 4.47062C51.0719 4.47062 49.2269 6.39062 49.2269 8.97062C49.2269 11.5506 51.0869 13.4706 53.6369 13.4706C55.6319 13.4706 57.2069 12.2106 57.6719 10.3506ZM63.8613 4.68062H61.9563V2.07062H60.4113V4.68062H58.5063V6.04562H60.4113V13.2606H61.9563V6.04562H63.8613V4.68062Z" fill="#1D1F22"/>
</svg>
