<svg width="128" height="125" viewBox="0 0 128 125" fill="none" xmlns="http://www.w3.org/2000/svg">
<path d="M63.1317 1.17348C63.5155 0.501473 64.4845 0.501476 64.8683 1.17349L78.0302 24.2158C78.2727 24.6403 78.7864 24.8272 79.2449 24.6579L104.139 15.4668C104.865 15.1987 105.607 15.8216 105.469 16.5831L100.741 42.6949C100.653 43.1758 100.927 43.6493 101.387 43.8143L126.365 52.775C127.093 53.0364 127.261 53.9906 126.666 54.4853L106.259 71.4485C105.884 71.761 105.789 72.2993 106.035 72.7215L119.409 95.6412C119.799 96.3097 119.315 97.1488 118.541 97.1452L92.0048 97.0226C91.516 97.0203 91.0972 97.3718 91.0146 97.8535L86.5273 124.008C86.3965 124.771 85.486 125.102 84.8954 124.602L64.6463 107.451C64.2733 107.135 63.7267 107.135 63.3537 107.451L43.1046 124.602C42.514 125.102 41.6035 124.771 41.4727 124.008L36.9854 97.8535C36.9028 97.3718 36.484 97.0203 35.9952 97.0226L9.45901 97.1452C8.6851 97.1488 8.20064 96.3097 8.59069 95.6412L21.965 72.7215C22.2113 72.2993 22.1164 71.761 21.7405 71.4485L1.33378 54.4853C0.738638 53.9906 0.906893 53.0364 1.63535 52.775L26.6132 43.8143C27.0733 43.6493 27.3466 43.1758 27.2595 42.6949L22.5308 16.5831C22.3929 15.8216 23.1351 15.1987 23.8611 15.4668L48.7551 24.6579C49.2136 24.8272 49.7273 24.6403 49.9698 24.2158L63.1317 1.17348Z" fill="#FFCDCD"/>
</svg>
