<svg width="140" height="141" viewBox="0 0 140 141" fill="none" xmlns="http://www.w3.org/2000/svg">
<path d="M70 0.65332L71.316 60.2361L87.4083 2.8525L73.8653 60.8907L103.723 9.31185L76.1717 62.1586L117.918 19.6255L78.0904 63.9604L129.103 33.1454L79.5007 66.1826L136.574 49.0221L80.314 68.6858L139.862 66.258L80.4793 71.3126L138.76 83.77L79.9861 73.898L133.338 100.458L78.8654 76.2795L123.936 115.273L77.1877 78.3075L111.145 127.285L75.0584 79.8545L95.7687 135.738L72.6112 80.8234L78.7733 140.101L70 81.1533L61.2267 140.101L67.3888 80.8234L44.2313 135.738L64.9416 79.8545L28.855 127.285L62.8123 78.3075L16.0641 115.273L61.1346 76.2795L6.66211 100.458L60.0139 73.898L1.23989 83.77L59.5207 71.3126L0.13813 66.258L59.686 68.6858L3.42604 49.0221L60.4993 66.1826L10.897 33.1454L61.9096 63.9604L22.0817 19.6255L63.8283 62.1586L36.2772 9.31185L66.1347 60.8907L52.5917 2.8525L68.684 60.2361L70 0.65332Z" fill="#FFD43E"/>
</svg>
