<svg width="158" height="20" viewBox="0 0 158 20" fill="none" xmlns="http://www.w3.org/2000/svg">
<path d="M0.875 6.19062C0.875 7.17396 1.09167 7.98229 1.525 8.61562C1.975 9.24896 2.56667 9.74896 3.3 10.1156C4.03333 10.4656 4.80833 10.724 5.625 10.8906C6.44167 11.0573 7.45833 11.2323 8.675 11.4156C9.575 11.5323 10.3167 11.649 10.9 11.7656C11.4833 11.8656 12.0083 12.0073 12.475 12.1906C12.9583 12.374 13.3333 12.624 13.6 12.9406C13.8833 13.2406 14.025 13.624 14.025 14.0906C14.025 14.5573 13.9083 14.9656 13.675 15.3156C13.4417 15.649 13.1167 15.924 12.7 16.1406C12.2833 16.3406 11.8167 16.4906 11.3 16.5906C10.7833 16.674 10.225 16.7156 9.625 16.7156C8.05833 16.7156 6.825 16.424 5.925 15.8406C5.025 15.2573 4.55 14.3906 4.5 13.2406H0.45C0.466667 14.2073 0.65 15.074 1 15.8406C1.35 16.6073 1.88333 17.2656 2.6 17.8156C3.33333 18.349 4.275 18.7656 5.425 19.0656C6.575 19.3656 7.93333 19.5156 9.5 19.5156C10.55 19.5156 11.5667 19.424 12.55 19.2406C13.55 19.0573 14.4667 18.749 15.3 18.3156C16.1333 17.8656 16.8 17.2656 17.3 16.5156C17.8167 15.749 18.075 14.8156 18.075 13.7156C18.075 12.6823 17.8417 11.8323 17.375 11.1656C16.9083 10.4823 16.2917 9.96562 15.525 9.61562C14.7583 9.24896 13.9583 8.98229 13.125 8.81562C12.2917 8.64896 11.2333 8.49062 9.95 8.34062C9.01667 8.22396 8.28333 8.12396 7.75 8.04062C7.21667 7.94062 6.71667 7.80729 6.25 7.64062C5.8 7.47396 5.44167 7.25729 5.175 6.99062C4.90833 6.70729 4.775 6.34896 4.775 5.91562C4.775 5.09896 5.14167 4.49062 5.875 4.09062C6.625 3.67396 7.64167 3.46562 8.925 3.46562C10.375 3.46562 11.4667 3.74896 12.2 4.31563C12.95 4.88229 13.3583 5.55729 13.425 6.34062H17.475C17.3583 5.12396 16.9917 4.13229 16.375 3.36562C15.7583 2.58229 15 1.99896 14.1 1.61562C13.2167 1.23229 12.325 0.982291 11.425 0.865625C10.525 0.732291 9.63333 0.665624 8.75 0.665624C7.63333 0.665624 6.6 0.773958 5.65 0.990625C4.7 1.19062 3.86667 1.51562 3.15 1.96562C2.43333 2.39896 1.875 2.97396 1.475 3.69062C1.075 4.39062 0.875 5.22396 0.875 6.19062ZM25.4553 11.7906L28.5553 4.26562L31.6053 11.7906H25.4553ZM18.4303 19.0156H22.4803L24.3303 14.5906H32.7303L34.6053 19.0156H38.7803L30.8303 1.16562H26.3803L18.4303 19.0156ZM40.5027 19.0156H44.0277L43.8777 4.26562H43.9277L50.4777 19.0156H53.6777L60.2777 4.26562H60.3277L60.1777 19.0156H63.7027V1.16562H58.3527L52.1527 15.0156L45.9027 1.16562H40.5027V19.0156ZM67.4832 19.0156H71.2332V1.16562H67.4832V19.0156ZM75.0057 19.0156H78.6057V5.61562H78.6557L89.3557 19.0156H93.5807V1.16562H89.9807V14.5656H89.9307L79.3057 1.16562H75.0057V19.0156ZM106.262 19.0156H120.862V16.0656H110.012V1.16562H106.262V19.0156ZM123.061 19.0156H138.761V16.2156H126.811V11.2656H138.086V8.46562H126.811V3.96562H138.561V1.16562H123.061V19.0156ZM141.717 19.0156H157.417V16.2156H145.467V11.2656H156.742V8.46562H145.467V3.96562H157.217V1.16562H141.717V19.0156Z" fill="#1D1F22"/>
</svg>
